<svg xmlns="http://www.w3.org/2000/svg" viewBox="0 0 392.52 273.06"><defs><style>.cls-1{fill:#70ff67;}</style></defs><g id="Camada_2" data-name="Camada 2"><g id="Camada_1-2" data-name="Camada 1"><path class="cls-1" d="M102.66,273.06q-21.33,0-38.8-7.53a83.61,83.61,0,0,1-29.13-20.34,115.44,115.44,0,0,1-19.66-30.46A158.06,158.06,0,0,1,3.53,177.59,230.12,230.12,0,0,1,0,136.53,230.32,230.32,0,0,1,3.53,95.46,158.13,158.13,0,0,1,15.07,58.33,115.28,115.28,0,0,1,34.73,27.87,83.61,83.61,0,0,1,63.86,7.53Q81.34,0,102.66,0V29.73A54,54,0,0,0,79.93,34.4a45.42,45.42,0,0,0-16.87,13A92.72,92.72,0,0,0,51.6,65.93a99.16,99.16,0,0,0-7.33,22.73,227.66,227.66,0,0,0-3.6,24q-1.08,11.48-1.07,23.87,0,10.4.73,20.13A198,198,0,0,0,43,177.06a141,141,0,0,0,5,19.8,90.93,90.93,0,0,0,8,17.47,62,62,0,0,0,11.33,14.2,47.91,47.91,0,0,0,15.47,9.33,55.16,55.16,0,0,0,19.86,3.47Z"/><path class="cls-1" d="M176.13,204.79,117.86,68.26h42.67L196,162.53l35.74-94.27h42.66L216.26,204.79Z"/><path class="cls-1" d="M289.86,241.33a55.16,55.16,0,0,0,19.86-3.47,47.91,47.91,0,0,0,15.47-9.33,63.32,63.32,0,0,0,11.4-14.2,89.43,89.43,0,0,0,8.07-17.47,142.36,142.36,0,0,0,5-19.8,200.62,200.62,0,0,0,2.66-20.4q.74-9.74.74-20.13t-.74-20.27q-.74-9.86-2.66-20.8a145.5,145.5,0,0,0-5-20.2,93.6,93.6,0,0,0-8.07-17.8,64.27,64.27,0,0,0-11.4-14.53,48.48,48.48,0,0,0-15.47-9.6,53.32,53.32,0,0,0-19.86-3.6V0q21.33,0,38.8,7.53a83.61,83.61,0,0,1,29.13,20.34,115.56,115.56,0,0,1,19.67,30.46A158.58,158.58,0,0,1,389,95.46a230.32,230.32,0,0,1,3.53,41.07A230.12,230.12,0,0,1,389,177.59a158.51,158.51,0,0,1-11.53,37.14,115.72,115.72,0,0,1-19.67,30.46,83.61,83.61,0,0,1-29.13,20.34q-17.48,7.53-38.8,7.53Z"/></g></g></svg>